<!-- Generated by IcoMoon.io -->
<svg version="1.1" xmlns="http://www.w3.org/2000/svg" width="384" height="448" viewBox="0 0 384 448">
<title></title>
<g id="icomoon-ignore">
</g>
<path d="M283.5 307.25c2.75 8.5-2 17.25-10.25 20-8.5 2.75-17.5-2-20.25-10.5-8.25-26.75-33-44.75-61-44.75s-52.75 18-61 44.75c-2.75 8.5-11.75 13.25-20 10.5-8.5-2.75-13.25-11.5-10.5-20 12.5-40.25 49.25-67.25 91.5-67.25s79 27 91.5 67.25zM160 160c0 17.75-14.25 32-32 32s-32-14.25-32-32 14.25-32 32-32 32 14.25 32 32zM288 160c0 17.75-14.25 32-32 32s-32-14.25-32-32 14.25-32 32-32 32 14.25 32 32zM352 224c0-88.25-71.75-160-160-160s-160 71.75-160 160 71.75 160 160 160 160-71.75 160-160zM384 224c0 106-86 192-192 192s-192-86-192-192 86-192 192-192 192 86 192 192z"></path>
</svg>
