<svg xmlns="http://www.w3.org/2000/svg" viewBox="0 0 364.11 329">
  <path
    d="M319 39.41C290.37 14.42 250.33 0 203.79 0 82.5 0 0 93.64 0 93.64l23.25 36.9s12.86 1.08 6.05-20.66c5.88-11.11 17.39-26.07 39.86-43.34V312.4c-9.69 2.73-22.49 7.86-13.76 16.6h66.78c8.81-8.82-5.07-14.13-13.54-16.6v-58s45.79 18 95.15 18c43.37 0 82.83-12.9 112.17-36.22s48.26-57.78 48.15-97.35A130.5 130.5 0 00319 39.41m-119.25 210c-38 0-70-7.33-91.07-17.74V47.27c23.17-16.47 60.73-26.61 91.07-26.55 36.86 0 65.8 14 85.37 35.1s30.2 49.52 30.3 82.36c-.12 32-11.52 58.35-31.82 78.57-20.33 20.05-49.84 32.72-83.89 32.69z" />
</svg>